<?xml version="1.0" encoding="UTF-8" standalone="no"?>
<!-- Created with Inkscape (http://www.inkscape.org/) -->

<svg
   xmlns:dc="http://purl.org/dc/elements/1.1/"
   xmlns:cc="http://creativecommons.org/ns#"
   xmlns:rdf="http://www.w3.org/1999/02/22-rdf-syntax-ns#"
   xmlns:svg="http://www.w3.org/2000/svg"
   xmlns="http://www.w3.org/2000/svg"
   xmlns:xlink="http://www.w3.org/1999/xlink"
   xmlns:sodipodi="http://sodipodi.sourceforge.net/DTD/sodipodi-0.dtd"
   xmlns:inkscape="http://www.inkscape.org/namespaces/inkscape"
   width="210mm"
   height="297mm"
   viewBox="0 0 210 297"
   version="1.1"
   id="svg8"
   inkscape:version="0.92.4 (f8dce91, 2019-08-02)"
   sodipodi:docname="revolute.svg">
  <defs
     id="defs2" />
  <sodipodi:namedview
     id="base"
     pagecolor="#ffffff"
     bordercolor="#666666"
     borderopacity="1.0"
     inkscape:pageopacity="0.0"
     inkscape:pageshadow="2"
     inkscape:zoom="0.35"
     inkscape:cx="400"
     inkscape:cy="560"
     inkscape:document-units="mm"
     inkscape:current-layer="layer1"
     showgrid="false"
     inkscape:snap-grids="false"
     inkscape:snap-bbox="true"
     inkscape:window-width="1013"
     inkscape:window-height="1892"
     inkscape:window-x="1987"
     inkscape:window-y="0"
     inkscape:window-maximized="1"
     showguides="false" />
  <metadata
     id="metadata5">
    <rdf:RDF>
      <cc:Work
         rdf:about="">
        <dc:format>image/svg+xml</dc:format>
        <dc:type
           rdf:resource="http://purl.org/dc/dcmitype/StillImage" />
        <dc:title></dc:title>
      </cc:Work>
    </rdf:RDF>
  </metadata>
  <g
     inkscape:label="Layer 1"
     inkscape:groupmode="layer"
     id="layer1">
    <path
       style="color:#000000;font-style:normal;font-variant:normal;font-weight:normal;font-stretch:normal;font-size:medium;line-height:normal;font-family:sans-serif;font-variant-ligatures:normal;font-variant-position:normal;font-variant-caps:normal;font-variant-numeric:normal;font-variant-alternates:normal;font-feature-settings:normal;text-indent:0;text-align:start;text-decoration:none;text-decoration-line:none;text-decoration-style:solid;text-decoration-color:#000000;letter-spacing:normal;word-spacing:normal;text-transform:none;writing-mode:lr-tb;direction:ltr;text-orientation:mixed;dominant-baseline:auto;baseline-shift:baseline;text-anchor:start;white-space:normal;shape-padding:0;clip-rule:nonzero;display:inline;overflow:visible;visibility:visible;opacity:1;isolation:auto;mix-blend-mode:normal;color-interpolation:sRGB;color-interpolation-filters:linearRGB;solid-color:#000000;solid-opacity:1;vector-effect:none;fill-opacity:1;fill-rule:nonzero;stroke:none;stroke-width:0.26458332;stroke-linecap:butt;stroke-linejoin:miter;stroke-miterlimit:4;stroke-dasharray:none;stroke-dashoffset:0;stroke-opacity:1;color-rendering:auto;image-rendering:auto;shape-rendering:auto;text-rendering:auto;enable-background:accumulate"
       d="m 61.988281,45.134766 c -11.770459,0 -21.298828,10.73048 -21.298828,23.945312 0,13.214832 9.528369,23.945313 21.298828,23.945313 11.77046,0 21.298828,-10.730481 21.298828,-23.945313 0,-13.214832 -9.528368,-23.945312 -21.298828,-23.945312 z m 0,0.265625 c 11.609594,0 21.035157,10.591958 21.035157,23.679687 0,13.087729 -9.425563,23.679688 -21.035157,23.679688 -11.609594,0 -21.035156,-10.591959 -21.035156,-23.679688 0,-13.087729 9.425562,-23.679687 21.035156,-23.679687 z"
       id="path42"
       inkscape:connector-curvature="0" />
    <path
       inkscape:connector-curvature="0"
       id="path46"
       d="m 61.988281,45.134766 c -11.770459,0 -21.298828,10.73048 -21.298828,23.945312 0,13.214832 9.528369,23.945313 21.298828,23.945313 11.77046,0 21.298828,-10.730481 21.298828,-23.945313 0,-13.214832 -9.528368,-23.945312 -21.298828,-23.945312 z m 0,0.265625 c 11.609594,0 21.035157,10.591958 21.035157,23.679687 0,13.087729 -9.425563,23.679688 -21.035157,23.679688 -11.609594,0 -21.035156,-10.591959 -21.035156,-23.679688 0,-13.087729 9.425562,-23.679687 21.035156,-23.679687 z"
       style="color:#000000;font-style:normal;font-variant:normal;font-weight:normal;font-stretch:normal;font-size:medium;line-height:normal;font-family:sans-serif;font-variant-ligatures:normal;font-variant-position:normal;font-variant-caps:normal;font-variant-numeric:normal;font-variant-alternates:normal;font-feature-settings:normal;text-indent:0;text-align:start;text-decoration:none;text-decoration-line:none;text-decoration-style:solid;text-decoration-color:#000000;letter-spacing:normal;word-spacing:normal;text-transform:none;writing-mode:lr-tb;direction:ltr;text-orientation:mixed;dominant-baseline:auto;baseline-shift:baseline;text-anchor:start;white-space:normal;shape-padding:0;clip-rule:nonzero;display:inline;overflow:visible;visibility:visible;opacity:1;isolation:auto;mix-blend-mode:normal;color-interpolation:sRGB;color-interpolation-filters:linearRGB;solid-color:#000000;solid-opacity:1;vector-effect:none;fill-opacity:1;fill-rule:nonzero;stroke:none;stroke-width:0.26458332;stroke-linecap:butt;stroke-linejoin:miter;stroke-miterlimit:4;stroke-dasharray:none;stroke-dashoffset:0;stroke-opacity:1;color-rendering:auto;image-rendering:auto;shape-rendering:auto;text-rendering:auto;enable-background:accumulate" />
    <path
       style="fill:none;stroke:#000000;stroke-width:0.25111648px;stroke-linecap:butt;stroke-linejoin:miter;stroke-opacity:1"
       d="M -21.440774,170.60202 C 44.873419,55.977279 44.876579,55.249895 44.876579,55.249895 v 0"
       id="path60"
       inkscape:connector-curvature="0" />
    <path
       style="fill:none;stroke:#000000;stroke-width:0.26667759px;stroke-linecap:butt;stroke-linejoin:miter;stroke-opacity:1"
       d="M 80.886492,79.285873 C 15.11946,191.92246 15.11946,191.92246 15.11946,191.92246"
       id="path62"
       inkscape:connector-curvature="0" />
    <path
       inkscape:connector-curvature="0"
       id="path46-3"
       d="m -3.0238097,156.63802 c -11.7704593,0 -21.2988283,10.73048 -21.2988283,23.94531 0,13.21484 9.528369,23.94532 21.2988283,23.94532 11.770461,0 21.2988287,-10.73048 21.2988287,-23.94532 0,-13.21483 -9.5283677,-23.94531 -21.2988287,-23.94531 z m 0,0.26563 c 11.609595,0 21.0351557,10.59195 21.0351557,23.67968 0,13.08773 -9.4255607,23.67969 -21.0351557,23.67969 -11.6095943,0 -21.0351563,-10.59196 -21.0351563,-23.67969 0,-13.08773 9.425562,-23.67968 21.0351563,-23.67968 z"
       style="color:#000000;font-style:normal;font-variant:normal;font-weight:normal;font-stretch:normal;font-size:medium;line-height:normal;font-family:sans-serif;font-variant-ligatures:normal;font-variant-position:normal;font-variant-caps:normal;font-variant-numeric:normal;font-variant-alternates:normal;font-feature-settings:normal;text-indent:0;text-align:start;text-decoration:none;text-decoration-line:none;text-decoration-style:solid;text-decoration-color:#000000;letter-spacing:normal;word-spacing:normal;text-transform:none;writing-mode:lr-tb;direction:ltr;text-orientation:mixed;dominant-baseline:auto;baseline-shift:baseline;text-anchor:start;white-space:normal;shape-padding:0;clip-rule:nonzero;display:inline;overflow:visible;visibility:visible;opacity:1;isolation:auto;mix-blend-mode:normal;color-interpolation:sRGB;color-interpolation-filters:linearRGB;solid-color:#000000;solid-opacity:1;vector-effect:none;fill-opacity:1;fill-rule:nonzero;stroke:none;stroke-width:0.26458332;stroke-linecap:butt;stroke-linejoin:miter;stroke-miterlimit:4;stroke-dasharray:none;stroke-dashoffset:0;stroke-opacity:1;color-rendering:auto;image-rendering:auto;shape-rendering:auto;text-rendering:auto;enable-background:accumulate" />
    <path
       inkscape:connector-curvature="0"
       id="path46-6"
       d="m 74.839285,34.173735 c -11.770459,0 -21.298828,10.73048 -21.298828,23.945312 0,13.214832 9.528369,23.945314 21.298828,23.945314 11.770461,0 21.298829,-10.730482 21.298829,-23.945314 0,-13.214832 -9.528368,-23.945312 -21.298829,-23.945312 z m 0,0.265625 c 11.609595,0 21.035156,10.591958 21.035156,23.679687 0,13.087729 -9.425561,23.679688 -21.035156,23.679688 -11.609594,0 -21.035156,-10.591959 -21.035156,-23.679688 0,-13.087729 9.425562,-23.679687 21.035156,-23.679687 z"
       style="color:#000000;font-style:normal;font-variant:normal;font-weight:normal;font-stretch:normal;font-size:medium;line-height:normal;font-family:sans-serif;font-variant-ligatures:normal;font-variant-position:normal;font-variant-caps:normal;font-variant-numeric:normal;font-variant-alternates:normal;font-feature-settings:normal;text-indent:0;text-align:start;text-decoration:none;text-decoration-line:none;text-decoration-style:solid;text-decoration-color:#000000;letter-spacing:normal;word-spacing:normal;text-transform:none;writing-mode:lr-tb;direction:ltr;text-orientation:mixed;dominant-baseline:auto;baseline-shift:baseline;text-anchor:start;white-space:normal;shape-padding:0;clip-rule:nonzero;display:inline;overflow:visible;visibility:visible;opacity:1;isolation:auto;mix-blend-mode:normal;color-interpolation:sRGB;color-interpolation-filters:linearRGB;solid-color:#000000;solid-opacity:1;vector-effect:none;fill-opacity:1;fill-rule:nonzero;stroke:none;stroke-width:0.26458332;stroke-linecap:butt;stroke-linejoin:miter;stroke-miterlimit:4;stroke-dasharray:none;stroke-dashoffset:0;stroke-opacity:1;color-rendering:auto;image-rendering:auto;shape-rendering:auto;text-rendering:auto;enable-background:accumulate" />
    <path
       style="fill:none;stroke:#000000;stroke-width:0.34115654px;stroke-linecap:butt;stroke-linejoin:miter;stroke-opacity:1"
       d="M 74.854554,34.247872 C 188.97283,62.580622 188.97283,62.580622 188.97283,62.580622"
       id="path113"
       inkscape:connector-curvature="0" />
    <path
       style="fill:none;stroke:#000000;stroke-width:0.30240583px;stroke-linecap:butt;stroke-linejoin:miter;stroke-opacity:1"
       d="M 64.263013,79.311484 C 182.17747,109.49804 182.17747,109.49804 182.17747,109.49804"
       id="path115"
       inkscape:connector-curvature="0" />
    <path
       inkscape:connector-curvature="0"
       id="path46-6-7"
       d="m 188.97283,62.314997 c -11.77046,0 -21.29883,10.73048 -21.29883,23.945312 0,13.214832 9.52837,23.945311 21.29883,23.945311 11.77046,0 21.29883,-10.730479 21.29883,-23.945311 0,-13.214832 -9.52837,-23.945312 -21.29883,-23.945312 z m 0,0.265625 c 11.60959,0 21.03515,10.591958 21.03515,23.679687 0,13.087729 -9.42556,23.679691 -21.03515,23.679691 -11.60959,0 -21.03516,-10.591962 -21.03516,-23.679691 0,-13.087729 9.42557,-23.679687 21.03516,-23.679687 z"
       style="color:#000000;font-style:normal;font-variant:normal;font-weight:normal;font-stretch:normal;font-size:medium;line-height:normal;font-family:sans-serif;font-variant-ligatures:normal;font-variant-position:normal;font-variant-caps:normal;font-variant-numeric:normal;font-variant-alternates:normal;font-feature-settings:normal;text-indent:0;text-align:start;text-decoration:none;text-decoration-line:none;text-decoration-style:solid;text-decoration-color:#000000;letter-spacing:normal;word-spacing:normal;text-transform:none;writing-mode:lr-tb;direction:ltr;text-orientation:mixed;dominant-baseline:auto;baseline-shift:baseline;text-anchor:start;white-space:normal;shape-padding:0;clip-rule:nonzero;display:inline;overflow:visible;visibility:visible;opacity:1;isolation:auto;mix-blend-mode:normal;color-interpolation:sRGB;color-interpolation-filters:linearRGB;solid-color:#000000;solid-opacity:1;vector-effect:none;fill-opacity:1;fill-rule:nonzero;stroke:none;stroke-width:0.26458332;stroke-linecap:butt;stroke-linejoin:miter;stroke-miterlimit:4;stroke-dasharray:none;stroke-dashoffset:0;stroke-opacity:1;color-rendering:auto;image-rendering:auto;shape-rendering:auto;text-rendering:auto;enable-background:accumulate" />
    <path
       style="fill:none;stroke:#000000;stroke-width:0.26458332px;stroke-linecap:butt;stroke-linejoin:miter;stroke-opacity:1"
       d="M 64.263013,79.311483 C 134.55952,-17.47619 134.55952,-17.47619 134.55952,-17.47619 l -3.02381,13.6071425"
       id="path132"
       inkscape:connector-curvature="0" />
    <path
       style="fill:none;stroke:#000000;stroke-width:0.26458332px;stroke-linecap:butt;stroke-linejoin:miter;stroke-opacity:1"
       d="m 134.55952,-17.47619 c -16.63095,6.803571 -16.63095,6.803571 -16.63095,6.803571"
       id="path134"
       inkscape:connector-curvature="0" />
    <path
       style="fill:none;stroke:#000000;stroke-width:0.26458332px;stroke-linecap:butt;stroke-linejoin:miter;stroke-opacity:1"
       d="M -7.5595238,182.85119 C -55.940475,249.375 -55.940475,249.375 -55.940475,249.375"
       id="path136"
       inkscape:connector-curvature="0" />
    <path
       style="fill:none;stroke:#000000;stroke-width:0.26458332px;stroke-linecap:butt;stroke-linejoin:miter;stroke-opacity:1"
       d="m -42.333333,228.96428 c 71.815475,56.69642 71.815475,56.69642 71.815475,56.69642 h 0.755952"
       id="path140"
       inkscape:connector-curvature="0" />
    <path
       style="fill:#000000;fill-opacity:0;stroke-width:0.26458332"
       id="path148"
       sodipodi:type="arc"
       sodipodi:cx="220.36011"
       sodipodi:cy="87.979164"
       sodipodi:rx="13.229166"
       sodipodi:ry="8.6934528"
       sodipodi:start="0"
       sodipodi:end="6.1516245"
       d="m 233.58927,87.979164 a 13.229166,8.6934528 0 0 1 -12.79413,8.688751 13.229166,8.6934528 0 0 1 -13.63559,-8.117304 13.229166,8.6934528 0 0 1 11.89734,-9.222615 13.229166,8.6934528 0 0 1 14.41806,7.510747 l -13.11484,1.140421 z" />
    <path
       style="fill:#000000;fill-opacity:0;stroke-width:0.26458332"
       id="path152"
       sodipodi:type="arc"
       sodipodi:cx="220.36011"
       sodipodi:cy="70.214287"
       sodipodi:rx="17.764881"
       sodipodi:ry="23.434523"
       sodipodi:start="0"
       sodipodi:end="6.1516224"
       d="m 238.12499,70.214287 a 17.764881,23.434523 0 0 1 -17.18069,23.421848 17.764881,23.434523 0 0 1 -18.31065,-21.881403 17.764881,23.434523 0 0 1 15.9764,-24.860979 17.764881,23.434523 0 0 1 19.36142,20.246306 l -17.61136,3.074228 z" />
    <path
       style="fill:#000000;fill-opacity:0;stroke-width:0.26458332"
       id="path154"
       sodipodi:type="arc"
       sodipodi:cx="275.92264"
       sodipodi:cy="21.833332"
       sodipodi:rx="21.166666"
       sodipodi:ry="23.434523"
       sodipodi:start="0"
       sodipodi:end="6.1516224"
       d="M 297.0893,21.833332 A 21.166666,23.434523 0 0 1 276.6187,45.25518 21.166666,23.434523 0 0 1 254.80175,23.373777 21.166666,23.434523 0 0 1 273.83746,-1.4872015 21.166666,23.434523 0 0 1 296.90638,18.759105 l -20.98374,3.074227 z" />
    <path
       style="fill:#000000;fill-opacity:0;stroke-width:0.26458332"
       id="path156"
       sodipodi:type="arc"
       sodipodi:cx="231.88838"
       sodipodi:cy="70.025299"
       sodipodi:rx="11.528279"
       sodipodi:ry="17.953869"
       sodipodi:start="0"
       sodipodi:end="6.1516224"
       d="m 243.41666,70.025299 a 11.528279,17.953869 0 0 1 -11.14917,17.944159 11.528279,17.953869 0 0 1 -11.88245,-16.763979 11.528279,17.953869 0 0 1 10.36767,-19.046718 11.528279,17.953869 0 0 1 12.56432,15.511283 l -11.42865,2.355255 z" />
    <path
       style="fill:#000000;fill-opacity:0;stroke-width:0.26458332"
       id="path158"
       sodipodi:type="arc"
       sodipodi:cx="220.36011"
       sodipodi:cy="70.214287"
       sodipodi:rx="15.497024"
       sodipodi:ry="28.726189"
       sodipodi:start="2.318238"
       sodipodi:end="6.1516224"
       d="m 209.82578,91.282945 a 15.497024,28.726189 0 0 1 -3.38986,-33.678287 15.497024,28.726189 0 0 1 16.41515,-15.743035 15.497024,28.726189 0 0 1 12.87214,24.584256 l -15.3631,3.768408 z" />
    <flowRoot
       xml:space="preserve"
       id="flowRoot160"
       style="font-style:normal;font-weight:normal;font-size:40px;line-height:1.25;font-family:sans-serif;letter-spacing:0px;word-spacing:0px;fill:#000000;fill-opacity:1;stroke:none"
       transform="matrix(0.57391209,0,0,0.5598517,83.138753,-235.90751)"><flowRegion
         id="flowRegion162"><rect
           id="rect164"
           width="91.428574"
           height="74.28569"
           x="-251.42857"
           y="791.09113" /></flowRegion><flowPara
         id="flowPara166">q</flowPara><flowPara
         id="flowPara168" /></flowRoot>    <flowRoot
       xml:space="preserve"
       id="flowRoot160-5"
       style="font-style:normal;font-weight:normal;font-size:40px;line-height:1.25;font-family:sans-serif;letter-spacing:0px;word-spacing:0px;fill:#000000;fill-opacity:1;stroke:none"
       transform="matrix(0.57433658,0,0,0.5844574,357.73634,-389.43752)"><flowRegion
         id="flowRegion162-3"><rect
           id="rect164-5"
           width="91.428574"
           height="74.28569"
           x="-251.42857"
           y="791.09113" /></flowRegion><flowPara
         id="flowPara166-6">p</flowPara><flowPara
         id="flowPara168-2" /></flowRoot>    <flowRoot
       xml:space="preserve"
       id="flowRoot224"
       style="fill:black;fill-opacity:1;stroke:none;font-family:sans-serif;font-style:normal;font-weight:normal;font-size:40px;line-height:1.25;letter-spacing:0px;word-spacing:0px"><flowRegion
         id="flowRegion226"><rect
           id="rect228"
           width="100"
           height="94.285713"
           x="302.85715"
           y="-20.337458" /></flowRegion><flowPara
         id="flowPara230"></flowPara></flowRoot>    <text
       xml:space="preserve"
       style="font-style:normal;font-weight:normal;font-size:20.03510284px;line-height:1.25;font-family:sans-serif;letter-spacing:0px;word-spacing:0px;fill:#000000;fill-opacity:1;stroke:none;stroke-width:0.5008775"
       x="118.36598"
       y="18.077747"
       id="text234"
       transform="scale(1.1451968,0.87321235)"><tspan
         sodipodi:role="line"
         x="118.36598"
         y="18.077747"
         style="stroke-width:0.5008775"
         id="tspan236">w</tspan></text>
    <path
       style="fill:none;stroke:#000000;stroke-width:0.26458332px;stroke-linecap:butt;stroke-linejoin:miter;stroke-opacity:1"
       d="m 133.04762,11.25 -15.875,5.291666"
       id="path242"
       inkscape:connector-curvature="0" />
    <path
       style="fill:none;stroke:#000000;stroke-width:0.26458332px;stroke-linecap:butt;stroke-linejoin:miter;stroke-opacity:1"
       d="M 117.17262,16.541666 99.785714,12.005952"
       id="path244"
       inkscape:connector-curvature="0" />
    <path
       style="fill:none;stroke:#000000;stroke-width:0.26458332px;stroke-linecap:butt;stroke-linejoin:miter;stroke-opacity:1"
       d="M 99.785714,12.005952 94.494047,-2.3571428"
       id="path246"
       inkscape:connector-curvature="0" />
    <path
       style="fill:none;stroke:#000000;stroke-width:0.26458332px;stroke-linecap:butt;stroke-linejoin:miter;stroke-opacity:1"
       d="M 133.04762,11.25 C 131.03175,10.494047 128.97888,9.8302325 127,8.9821426 c -0.46322,-0.1985227 1.00793,0 1.5119,0 1.63702,0 4.23086,-0.475914 4.53572,2.2678574 0.17599,1.58394 -1.07409,3.003345 -1.51191,4.535714 -0.0692,0.242289 0,0.503968 0,0.755952 -0.25198,0.251985 -0.59658,0.437215 -0.75595,0.755953 -0.22538,0.450763 0.35636,1.155545 0,1.511905 -0.17818,0.178179 -0.50397,0 -0.75595,0 -0.25199,0 -0.57778,0.178179 -0.75595,0 -0.35636,-0.35636 0.22538,-1.061142 0,-1.511905 -0.15937,-0.318738 -0.59659,-0.437215 -0.75596,-0.755953 -0.14986,-0.299729 0.15455,-2.113312 0,-2.267857 -0.17818,-0.178179 -0.57777,0.17818 -0.75595,0 -0.17818,-0.178179 0,-0.503968 0,-0.755952 0,-0.251984 0,-0.503968 0,-0.755952 0,-0.503969 0,-1.007937 0,-1.511905 0,-0.251984 -0.25198,-0.755953 0,-0.755953 1.7818,0 3.52778,0.503969 5.29167,0.755953"
       id="path250"
       inkscape:connector-curvature="0" />
    <path
       style="fill:#000000;fill-opacity:0;stroke-width:0.26458332"
       id="path252"
       d="m -80.86872,-197.10511 c 1.908879,3.81416 4.203864,7.41744 6.500476,11.00589 2.214957,3.66683 4.635215,7.17375 7.374922,10.46584 2.791981,3.38088 5.685255,6.68303 8.679852,9.88563 2.498423,2.70464 5.255898,5.13674 8.372229,7.09767 2.934422,1.84037 6.235247,2.17251 9.61015,2.20712 3.689448,-0.25807 7.410763,-0.85053 10.805293,-2.35828 5.451061,-3.05147 -4.240673,2.51287 -6.436421,3.6285 -0.562375,0.28574 0.997815,-0.77269 1.478894,-1.1807 1.612939,-1.36796 3.112108,-2.85834 4.59527,-4.36291 1.284576,-1.35322 2.447052,-2.80838 3.579658,-4.28803 0,0 10.196082,-4.39333 10.196082,-4.39333 v 0 c -1.129666,1.53358 -2.313622,3.01923 -3.584707,4.43992 -1.460858,1.54044 -2.967593,3.00592 -4.526314,4.44735 -0.46999,0.43463 -0.873991,0.95677 -1.416106,1.29721 -8.593312,5.39653 -7.561088,4.84302 -12.61019,7.2715 -3.544475,1.26463 -7.294576,1.90785 -11.058268,1.98693 -3.538408,-0.13744 -6.966199,-0.71229 -9.993948,-2.68417 -3.12639,-2.08071 -5.885764,-4.62777 -8.435514,-7.38115 -2.990025,-3.23678 -5.916187,-6.53563 -8.727829,-9.92908 -2.75904,-3.33479 -5.192136,-6.88542 -7.402547,-10.60796 -2.306894,-3.61109 -4.590161,-7.23876 -6.716434,-10.96008 0,0 9.715452,-5.58787 9.715452,-5.58787 z"
       inkscape:connector-curvature="0" />
    <path
       style="fill:#000000;fill-opacity:0;stroke-width:0.26458332"
       id="path254"
       d="m -94.029288,-212.73404 c -0.04794,5.886 -1.146164,11.68014 -2.338369,17.42153 -1.22066,5.31901 -2.146176,10.70918 -3.636903,15.96383 -0.67038,2.36301 -1.57929,5.0606 -2.34532,7.3988 -2.42989,6.75895 -5.69683,13.17386 -8.98019,19.54807 -2.7184,5.48915 -5.48942,10.93899 -8.53184,16.25593 -1.80112,3.03734 -3.52069,6.12316 -5.32203,9.16 -0.4862,0.87064 -1.02391,1.70993 -1.56918,2.5441 0,0 -10.27127,4.50859 -10.27127,4.50859 v 0 c 0.54819,-0.84899 1.18384,-1.63463 1.63803,-2.54261 1.91228,-3.01783 3.60573,-6.17328 5.4946,-9.20661 3.11752,-5.30962 5.97837,-10.73969 8.69018,-16.26847 3.28001,-6.34172 6.53723,-12.72286 9.07482,-19.4056 0.68514,-2.04097 1.80082,-5.30213 2.40387,-7.35436 1.53452,-5.22207 2.4636,-10.59164 3.64164,-15.89899 1.14929,-5.5971 2.29057,-11.28473 2.05102,-17.02847 0,0 10.000942,-5.09574 10.000942,-5.09574 z"
       inkscape:connector-curvature="0" />
    <use
       id="use256"
       inkscape:spray-origin="#path254"
       xlink:href="#path254"
       x="0"
       y="0"
       width="100%"
       height="100%"
       transform="translate(-81.2422,18.559494)" />
    <use
       id="use258"
       inkscape:spray-origin="#path254"
       xlink:href="#path254"
       x="0"
       y="0"
       width="100%"
       height="100%"
       transform="translate(-93.317009,21.536231)" />
    <use
       id="use260"
       inkscape:spray-origin="#path254"
       xlink:href="#path254"
       x="0"
       y="0"
       width="100%"
       height="100%"
       transform="translate(-79.965764,17.380993)" />
    <use
       id="use262"
       inkscape:spray-origin="#path254"
       xlink:href="#path254"
       x="0"
       y="0"
       width="100%"
       height="100%"
       transform="translate(-64.977232,8.900326)" />
    <use
       id="use264"
       inkscape:spray-origin="#path254"
       xlink:href="#path254"
       x="0"
       y="0"
       width="100%"
       height="100%"
       transform="translate(-99.77438,26.803797)" />
    <use
       id="use266"
       inkscape:spray-origin="#path254"
       xlink:href="#path254"
       x="0"
       y="0"
       width="100%"
       height="100%"
       transform="translate(-103.57288,31.688201)" />
    <use
       id="use268"
       inkscape:spray-origin="#path254"
       xlink:href="#path254"
       x="0"
       y="0"
       width="100%"
       height="100%"
       transform="translate(-80.219919,20.800417)" />
    <use
       id="use270"
       inkscape:spray-origin="#path254"
       xlink:href="#path254"
       x="0"
       y="0"
       width="100%"
       height="100%"
       transform="translate(-70.341732,34.087543)" />
    <use
       id="use272"
       inkscape:spray-origin="#path254"
       xlink:href="#path254"
       x="0"
       y="0"
       width="100%"
       height="100%"
       transform="translate(-83.157864,10.40938)" />
    <use
       id="use274"
       inkscape:spray-origin="#path254"
       xlink:href="#path254"
       x="0"
       y="0"
       width="100%"
       height="100%"
       transform="translate(-93.472999,46.313239)" />
    <use
       id="use276"
       inkscape:spray-origin="#path254"
       xlink:href="#path254"
       x="0"
       y="0"
       width="100%"
       height="100%"
       transform="translate(-77.893293,34.592707)" />
    <use
       id="use278"
       inkscape:spray-origin="#path254"
       xlink:href="#path254"
       x="0"
       y="0"
       width="100%"
       height="100%"
       transform="translate(-69.177532,12.998914)" />
    <use
       id="use280"
       inkscape:spray-origin="#path254"
       xlink:href="#path254"
       x="0"
       y="0"
       width="100%"
       height="100%"
       transform="translate(-91.545174,42.821182)" />
    <use
       id="use282"
       inkscape:spray-origin="#path254"
       xlink:href="#path254"
       x="0"
       y="0"
       width="100%"
       height="100%"
       transform="translate(-78.212997,39.427449)" />
    <use
       id="use284"
       inkscape:spray-origin="#path254"
       xlink:href="#path254"
       x="0"
       y="0"
       width="100%"
       height="100%"
       transform="translate(-75.257836,24.525126)" />
    <use
       id="use286"
       inkscape:spray-origin="#path254"
       xlink:href="#path254"
       x="0"
       y="0"
       width="100%"
       height="100%"
       transform="translate(-62.58349,28.442902)" />
    <use
       id="use288"
       inkscape:spray-origin="#path254"
       xlink:href="#path254"
       x="0"
       y="0"
       width="100%"
       height="100%"
       transform="translate(-72.042884,22.98896)" />
    <use
       id="use290"
       inkscape:spray-origin="#path254"
       xlink:href="#path254"
       x="0"
       y="0"
       width="100%"
       height="100%"
       transform="translate(-63.358671,32.371121)" />
    <use
       id="use292"
       inkscape:spray-origin="#path254"
       xlink:href="#path254"
       x="0"
       y="0"
       width="100%"
       height="100%"
       transform="translate(-99.537664,43.551379)" />
    <use
       id="use294"
       inkscape:spray-origin="#path254"
       xlink:href="#path254"
       x="0"
       y="0"
       width="100%"
       height="100%"
       transform="translate(-90.023247,46.104663)" />
    <use
       id="use296"
       inkscape:spray-origin="#path254"
       xlink:href="#path254"
       x="0"
       y="0"
       width="100%"
       height="100%"
       transform="translate(-81.901744,47.107898)" />
    <use
       id="use298"
       inkscape:spray-origin="#path254"
       xlink:href="#path254"
       x="0"
       y="0"
       width="100%"
       height="100%"
       transform="translate(-61.872241,44.759595)" />
    <use
       id="use300"
       inkscape:spray-origin="#path254"
       xlink:href="#path254"
       x="0"
       y="0"
       width="100%"
       height="100%"
       transform="translate(-87.402604,56.997342)" />
    <use
       id="use302"
       inkscape:spray-origin="#path254"
       xlink:href="#path254"
       x="0"
       y="0"
       width="100%"
       height="100%"
       transform="translate(-72.330535,28.514848)" />
    <use
       id="use304"
       inkscape:spray-origin="#path254"
       xlink:href="#path254"
       x="0"
       y="0"
       width="100%"
       height="100%"
       transform="translate(-69.984013,43.672949)" />
    <use
       id="use306"
       inkscape:spray-origin="#path254"
       xlink:href="#path254"
       x="0"
       y="0"
       width="100%"
       height="100%"
       transform="translate(-66.706128,40.627139)" />
    <use
       id="use308"
       inkscape:spray-origin="#path254"
       xlink:href="#path254"
       x="0"
       y="0"
       width="100%"
       height="100%"
       transform="translate(-87.193042,57.745147)" />
    <use
       id="use310"
       inkscape:spray-origin="#path254"
       xlink:href="#path254"
       x="0"
       y="0"
       width="100%"
       height="100%"
       transform="translate(-66.623612,61.530693)" />
    <use
       id="use312"
       inkscape:spray-origin="#path254"
       xlink:href="#path254"
       x="0"
       y="0"
       width="100%"
       height="100%"
       transform="translate(-72.276551,27.922707)" />
    <use
       id="use314"
       inkscape:spray-origin="#path254"
       xlink:href="#path254"
       x="0"
       y="0"
       width="100%"
       height="100%"
       transform="translate(-62.247707,24.688342)" />
    <use
       id="use316"
       inkscape:spray-origin="#path254"
       xlink:href="#path254"
       x="0"
       y="0"
       width="100%"
       height="100%"
       transform="translate(-43.609521,32.088862)" />
    <use
       id="use318"
       inkscape:spray-origin="#path254"
       xlink:href="#path254"
       x="0"
       y="0"
       width="100%"
       height="100%"
       transform="translate(-53.983451,33.893473)" />
    <use
       id="use320"
       inkscape:spray-origin="#path254"
       xlink:href="#path254"
       x="0"
       y="0"
       width="100%"
       height="100%"
       transform="translate(-50.371657,64.637519)" />
    <use
       id="use322"
       inkscape:spray-origin="#path254"
       xlink:href="#path254"
       x="0"
       y="0"
       width="100%"
       height="100%"
       transform="translate(-57.743072,56.643015)" />
    <use
       id="use324"
       inkscape:spray-origin="#path254"
       xlink:href="#path254"
       x="0"
       y="0"
       width="100%"
       height="100%"
       transform="translate(-40.944671,47.62941)" />
    <use
       id="use326"
       inkscape:spray-origin="#path254"
       xlink:href="#path254"
       x="0"
       y="0"
       width="100%"
       height="100%"
       transform="translate(-56.473406,19.53726)" />
    <use
       id="use328"
       inkscape:spray-origin="#path254"
       xlink:href="#path254"
       x="0"
       y="0"
       width="100%"
       height="100%"
       transform="translate(-35.125987,29.048419)" />
    <use
       id="use330"
       inkscape:spray-origin="#path254"
       xlink:href="#path254"
       x="0"
       y="0"
       width="100%"
       height="100%"
       transform="translate(-39.932495,14.748035)" />
    <use
       id="use332"
       inkscape:spray-origin="#path254"
       xlink:href="#path254"
       x="0"
       y="0"
       width="100%"
       height="100%"
       transform="translate(-27.759362,33.223349)" />
    <use
       id="use334"
       inkscape:spray-origin="#path254"
       xlink:href="#path254"
       x="0"
       y="0"
       width="100%"
       height="100%"
       transform="translate(-26.810315,28.75605)" />
    <use
       id="use336"
       inkscape:spray-origin="#path254"
       xlink:href="#path254"
       x="0"
       y="0"
       width="100%"
       height="100%"
       transform="translate(-75.481157,22.88326)" />
    <use
       id="use338"
       inkscape:spray-origin="#path254"
       xlink:href="#path254"
       x="0"
       y="0"
       width="100%"
       height="100%"
       transform="translate(-52.321651,54.896981)" />
    <use
       id="use340"
       inkscape:spray-origin="#path254"
       xlink:href="#path254"
       x="0"
       y="0"
       width="100%"
       height="100%"
       transform="translate(-23.494662,37.405664)" />
    <use
       id="use342"
       inkscape:spray-origin="#path254"
       xlink:href="#path254"
       x="0"
       y="0"
       width="100%"
       height="100%"
       transform="translate(-55.876768,32.576301)" />
    <use
       id="use344"
       inkscape:spray-origin="#path254"
       xlink:href="#path254"
       x="0"
       y="0"
       width="100%"
       height="100%"
       transform="translate(-60.179494,26.926399)" />
    <use
       id="use346"
       inkscape:spray-origin="#path254"
       xlink:href="#path254"
       x="0"
       y="0"
       width="100%"
       height="100%"
       transform="translate(-32.306805,52.45953)" />
    <use
       id="use348"
       inkscape:spray-origin="#path254"
       xlink:href="#path254"
       x="0"
       y="0"
       width="100%"
       height="100%"
       transform="translate(-57.749071,36.530221)" />
    <use
       id="use350"
       inkscape:spray-origin="#path254"
       xlink:href="#path254"
       x="0"
       y="0"
       width="100%"
       height="100%"
       transform="translate(-44.831571,33.2649)" />
    <use
       id="use352"
       inkscape:spray-origin="#path254"
       xlink:href="#path254"
       x="0"
       y="0"
       width="100%"
       height="100%"
       transform="translate(-39.802855,48.638742)" />
    <use
       id="use354"
       inkscape:spray-origin="#path254"
       xlink:href="#path254"
       x="0"
       y="0"
       width="100%"
       height="100%"
       transform="translate(-64.776318,35.969158)" />
    <use
       id="use356"
       inkscape:spray-origin="#path254"
       xlink:href="#path254"
       x="0"
       y="0"
       width="100%"
       height="100%"
       transform="translate(-65.899747,33.254811)" />
    <use
       id="use358"
       inkscape:spray-origin="#path254"
       xlink:href="#path254"
       x="0"
       y="0"
       width="100%"
       height="100%"
       transform="translate(-37.545967,60.978351)" />
    <use
       id="use360"
       inkscape:spray-origin="#path254"
       xlink:href="#path254"
       x="0"
       y="0"
       width="100%"
       height="100%"
       transform="translate(-48.417836,56.396815)" />
    <use
       id="use362"
       inkscape:spray-origin="#path254"
       xlink:href="#path254"
       x="0"
       y="0"
       width="100%"
       height="100%"
       transform="translate(-61.689601,37.735059)" />
    <use
       id="use364"
       inkscape:spray-origin="#path254"
       xlink:href="#path254"
       x="0"
       y="0"
       width="100%"
       height="100%"
       transform="translate(-47.213018,42.511778)" />
    <use
       id="use366"
       inkscape:spray-origin="#path254"
       xlink:href="#path254"
       x="0"
       y="0"
       width="100%"
       height="100%"
       transform="translate(-68.037652,89.616579)" />
    <use
       id="use368"
       inkscape:spray-origin="#path254"
       xlink:href="#path254"
       x="0"
       y="0"
       width="100%"
       height="100%"
       transform="translate(-75.843992,58.779199)" />
    <use
       id="use370"
       inkscape:spray-origin="#path254"
       xlink:href="#path254"
       x="0"
       y="0"
       width="100%"
       height="100%"
       transform="translate(-52.375886,67.574944)" />
    <use
       id="use372"
       inkscape:spray-origin="#path254"
       xlink:href="#path254"
       x="0"
       y="0"
       width="100%"
       height="100%"
       transform="translate(-32.36782,68.189521)" />
    <use
       id="use374"
       inkscape:spray-origin="#path254"
       xlink:href="#path254"
       x="0"
       y="0"
       width="100%"
       height="100%"
       transform="translate(-74.595323,57.160091)" />
    <use
       id="use376"
       inkscape:spray-origin="#path254"
       xlink:href="#path254"
       x="0"
       y="0"
       width="100%"
       height="100%"
       transform="translate(-50.771268,59.762751)" />
    <use
       id="use378"
       inkscape:spray-origin="#path254"
       xlink:href="#path254"
       x="0"
       y="0"
       width="100%"
       height="100%"
       transform="translate(-37.905461,71.246752)" />
    <use
       id="use380"
       inkscape:spray-origin="#path254"
       xlink:href="#path254"
       x="0"
       y="0"
       width="100%"
       height="100%"
       transform="translate(-33.745319,55.222408)" />
    <use
       id="use382"
       inkscape:spray-origin="#path254"
       xlink:href="#path254"
       x="0"
       y="0"
       width="100%"
       height="100%"
       transform="translate(-52.437681,67.817976)" />
    <use
       id="use384"
       inkscape:spray-origin="#path254"
       xlink:href="#path254"
       x="0"
       y="0"
       width="100%"
       height="100%"
       transform="translate(-35.636976,46.577293)" />
    <use
       id="use386"
       inkscape:spray-origin="#path254"
       xlink:href="#path254"
       x="0"
       y="0"
       width="100%"
       height="100%"
       transform="translate(-24.029082,58.41124)" />
    <use
       id="use388"
       inkscape:spray-origin="#path254"
       xlink:href="#path254"
       x="0"
       y="0"
       width="100%"
       height="100%"
       transform="translate(-12.739108,45.813142)" />
    <use
       id="use390"
       inkscape:spray-origin="#path254"
       xlink:href="#path254"
       x="0"
       y="0"
       width="100%"
       height="100%"
       transform="translate(-18.544055,53.852688)" />
    <use
       id="use392"
       inkscape:spray-origin="#path254"
       xlink:href="#path254"
       x="0"
       y="0"
       width="100%"
       height="100%"
       transform="translate(-11.956937,45.125032)" />
    <use
       id="use394"
       inkscape:spray-origin="#path254"
       xlink:href="#path254"
       x="0"
       y="0"
       width="100%"
       height="100%"
       transform="translate(7.3139207,22.333367)" />
    <use
       id="use396"
       inkscape:spray-origin="#path254"
       xlink:href="#path254"
       x="0"
       y="0"
       width="100%"
       height="100%"
       transform="translate(-0.57502066,21.243188)" />
    <use
       id="use398"
       inkscape:spray-origin="#path254"
       xlink:href="#path254"
       x="0"
       y="0"
       width="100%"
       height="100%"
       transform="translate(-13.51996,26.491119)" />
    <use
       id="use400"
       inkscape:spray-origin="#path254"
       xlink:href="#path254"
       x="0"
       y="0"
       width="100%"
       height="100%"
       transform="translate(-21.076929,0.70037059)" />
    <use
       id="use402"
       inkscape:spray-origin="#path254"
       xlink:href="#path254"
       x="0"
       y="0"
       width="100%"
       height="100%"
       transform="translate(10.462059,26.549633)" />
    <use
       id="use404"
       inkscape:spray-origin="#path254"
       xlink:href="#path254"
       x="0"
       y="0"
       width="100%"
       height="100%"
       transform="translate(8.4644204,14.27164)" />
    <use
       id="use406"
       inkscape:spray-origin="#path254"
       xlink:href="#path254"
       x="0"
       y="0"
       width="100%"
       height="100%"
       transform="translate(2.7839228,22.983965)" />
    <use
       id="use408"
       inkscape:spray-origin="#path254"
       xlink:href="#path254"
       x="0"
       y="0"
       width="100%"
       height="100%"
       transform="translate(19.977119,-3.2509853)" />
    <use
       id="use410"
       inkscape:spray-origin="#path254"
       xlink:href="#path254"
       x="0"
       y="0"
       width="100%"
       height="100%"
       transform="translate(33.822811,19.881118)" />
    <use
       id="use412"
       inkscape:spray-origin="#path254"
       xlink:href="#path254"
       x="0"
       y="0"
       width="100%"
       height="100%"
       transform="translate(31.98155,12.832622)" />
    <use
       id="use414"
       inkscape:spray-origin="#path254"
       xlink:href="#path254"
       x="0"
       y="0"
       width="100%"
       height="100%"
       transform="translate(34.720021,-8.9225494)" />
    <use
       id="use416"
       inkscape:spray-origin="#path254"
       xlink:href="#path254"
       x="0"
       y="0"
       width="100%"
       height="100%"
       transform="translate(-1.0866781,10.085493)" />
    <use
       id="use418"
       inkscape:spray-origin="#path254"
       xlink:href="#path254"
       x="0"
       y="0"
       width="100%"
       height="100%"
       transform="translate(19.59548,13.337779)" />
    <use
       id="use420"
       inkscape:spray-origin="#path254"
       xlink:href="#path254"
       x="0"
       y="0"
       width="100%"
       height="100%"
       transform="translate(17.18913,-10.118584)" />
    <use
       id="use422"
       inkscape:spray-origin="#path254"
       xlink:href="#path254"
       x="0"
       y="0"
       width="100%"
       height="100%"
       transform="translate(31.008638,-23.269837)" />
    <use
       id="use424"
       inkscape:spray-origin="#path254"
       xlink:href="#path254"
       x="0"
       y="0"
       width="100%"
       height="100%"
       transform="translate(29.656329,-6.7307478)" />
    <use
       id="use426"
       inkscape:spray-origin="#path254"
       xlink:href="#path254"
       x="0"
       y="0"
       width="100%"
       height="100%"
       transform="translate(53.475042,-19.77826)" />
    <use
       id="use428"
       inkscape:spray-origin="#path254"
       xlink:href="#path254"
       x="0"
       y="0"
       width="100%"
       height="100%"
       transform="translate(13.40088,-19.88529)" />
    <use
       id="use430"
       inkscape:spray-origin="#path254"
       xlink:href="#path254"
       x="0"
       y="0"
       width="100%"
       height="100%"
       transform="translate(20.210698,-6.8408972)" />
    <use
       id="use432"
       inkscape:spray-origin="#path254"
       xlink:href="#path254"
       x="0"
       y="0"
       width="100%"
       height="100%"
       transform="translate(57.377958,-18.39432)" />
    <path
       style="fill:#000000;fill-opacity:0;stroke-width:2.85714293"
       d="m 682.97397,406.04183 c -17.02556,-8.4842 -30.41226,-22.60922 -38.94337,-41.09127 -8.52426,-18.46719 -8.52426,-58.96599 0,-77.43317 14.12612,-30.60324 40.12937,-48.34767 70.92447,-48.39837 21.85652,-0.036 37.58621,7.50714 54.20906,25.99576 15.62194,17.37535 22.11307,35.82729 22.02839,62.61878 -0.19534,61.81043 -57.75011,103.45775 -108.21855,78.30827 z"
       id="path649"
       inkscape:connector-curvature="0"
       transform="scale(0.26458333)" />
    <path
       style="fill:#000000;fill-opacity:0;stroke-width:2.85714293"
       d="m 682.97397,406.04183 c -17.02556,-8.4842 -30.41226,-22.60922 -38.94337,-41.09127 -8.52426,-18.46719 -8.52426,-58.96599 0,-77.43317 14.12612,-30.60324 40.12937,-48.34767 70.92447,-48.39837 21.85652,-0.036 37.58621,7.50714 54.20906,25.99576 15.62194,17.37535 22.11307,35.82729 22.02839,62.61878 -0.19534,61.81043 -57.75011,103.45775 -108.21855,78.30827 z"
       id="path651"
       inkscape:connector-curvature="0"
       transform="scale(0.26458333)" />
    <path
       style="fill:#000000;fill-opacity:0;stroke-width:2.85714293"
       d="m 682.97397,406.04183 c -17.02556,-8.4842 -30.41226,-22.60922 -38.94337,-41.09127 -8.52426,-18.46719 -8.52426,-58.96599 0,-77.43317 14.12612,-30.60324 40.12937,-48.34767 70.92447,-48.39837 21.85652,-0.036 37.58621,7.50714 54.20906,25.99576 15.62194,17.37535 22.11307,35.82729 22.02839,62.61878 -0.19534,61.81043 -57.75011,103.45775 -108.21855,78.30827 z"
       id="path653"
       inkscape:connector-curvature="0"
       transform="scale(0.26458333)" />
    <path
       style="fill:#000000;fill-opacity:0;stroke-width:2.85714293"
       d=""
       id="path657"
       inkscape:connector-curvature="0"
       transform="scale(0.26458333)" />
    <path
       style="fill:#000000;fill-opacity:0;stroke-width:2.85714293"
       d=""
       id="path659"
       inkscape:connector-curvature="0"
       transform="scale(0.26458333)" />
    <path
       style="fill:#000000;fill-opacity:0;stroke-width:2.85714293"
       d=""
       id="path661"
       inkscape:connector-curvature="0"
       transform="scale(0.26458333)" />
    <path
       style="fill:#000000;fill-opacity:0;stroke-width:2.85714293"
       d=""
       id="path663"
       inkscape:connector-curvature="0"
       transform="scale(0.26458333)" />
    <path
       style="fill:#000000;fill-opacity:0.15324755;stroke-width:0.26458332"
       id="path671"
       d="m -37.51332,224.29578 c -0.485662,1.52756 -0.978295,3.34215 -0.443019,4.91961 0.351848,0.80368 1.175991,0.4331 1.886098,0.35885 0.297196,-0.13262 1.436283,0.0471 1.639565,-0.12972 0.07639,-0.0665 0.155647,-0.34539 0.06715,-0.29622 -3.15292,1.7518 -6.231181,3.63474 -9.346771,5.4521 0.329155,-1.36363 0.281953,-2.82462 0.148042,-4.21429 -0.168473,-1.05284 -0.08074,-0.52508 -0.263334,-1.58325 0,0 9.912992,-5.26597 9.912992,-5.26597 v 0 c 0.185386,1.07654 0.09024,0.53354 0.285634,1.62896 0.231833,1.52568 0.183766,3.08793 0.105421,4.62639 -10.419514,6.94818 -6.044462,6.22509 -11.646599,6.44538 -1.182679,-0.0269 -2.121971,-0.39887 -2.622716,-1.56113 -0.708658,-1.7949 -0.316601,-3.81055 0.09497,-5.64452 0,0 10.182575,-4.73619 10.182575,-4.73619 z"
       inkscape:connector-curvature="0" />
    <path
       style="fill:#000000;fill-opacity:0.15324755;stroke-width:2.85714293"
       d="m -170.2798,889.91992 c 1.20945,-2.02727 4.70911,-7.1349 7.77702,-11.3503 5.2669,-7.23684 5.95344,-7.41837 12.30842,-3.25442 l 6.7304,4.40992 -6.41088,4.9616 c -8.4727,6.55731 -23.49311,10.40955 -20.40496,5.2332 z"
       id="path673"
       inkscape:connector-curvature="0"
       transform="scale(0.26458333)" />
    <path
       style="fill:#000000;fill-opacity:0.15324755;stroke-width:2.85714293"
       d="m -146.84387,873.69409 c -7.41369,-7.18179 -7.51587,-7.68432 -2.73884,-13.4692 7.89052,-9.55527 17.78438,-13.98088 20.75946,-9.28591 4.12786,6.51421 2.81657,16.20159 -2.72523,20.13298 -2.89452,2.05339 -5.78738,5.16192 -6.42857,6.90784 -0.67319,1.83305 -4.41989,0.022 -8.86682,-4.28571 z"
       id="path675"
       inkscape:connector-curvature="0"
       transform="scale(0.26458333)" />
    <path
       style="fill:#000000;fill-opacity:0.15324755;stroke-width:2.85714293"
       d="m -170.16045,888.72856 c 1.79746,-0.737 2.65919,-3.66856 1.91494,-6.51457 -1.04245,-3.98634 0.79042,-5.60329 7.98188,-7.04158 5.45106,-1.09021 10.59811,-0.57901 12.37077,1.22865 4.3034,4.38839 -8.38014,14.18068 -17.99509,13.89306 -4.14734,-0.12406 -6.06997,-0.82856 -4.2725,-1.56556 z"
       id="path677"
       inkscape:connector-curvature="0"
       transform="scale(0.26458333)" />
    <path
       style="fill:#000000;fill-opacity:0.15324755;stroke-width:2.85714293"
       d="m -155.89036,871.94826 c 0.90452,-2.35715 2.01232,-4.28572 2.46179,-4.28572 0.44946,0 1.55727,1.92857 2.46179,4.28572 0.99173,2.58442 0.0145,4.28571 -2.46179,4.28571 -2.47627,0 -3.45353,-1.70129 -2.46179,-4.28571 z"
       id="path679"
       inkscape:connector-curvature="0"
       transform="scale(0.26458333)" />
    <path
       style="fill:#000000;fill-opacity:0.15324755;stroke-width:2.85714293"
       d="m -178.66667,888.61492 c -1.04762,-1.04761 -1.87446,-6.5119 -1.83742,-12.14285 0.0629,-9.55875 1.04089,-10.66618 14.7391,-16.68948 16.46978,-7.24199 18.80911,-7.05128 11.59196,0.94502 -2.7334,3.0285 -8.6804,10.97065 -13.21554,17.64922 -9.0691,13.35539 -8.593,12.92319 -11.2781,10.23809 z"
       id="path681"
       inkscape:connector-curvature="0"
       transform="scale(0.26458333)" />
  </g>
</svg>
